<svg version="1.2" xmlns="http://www.w3.org/2000/svg" viewBox="0 0 24 24" width="24" height="24"><style>.a{fill:#fff}</style><path fill-rule="evenodd" class="a" d="m24 12c0 6.6-5.4 12-12 12-6.6 0-12-5.4-12-12 0-6.6 5.4-12 12-12 6.6 0 12 5.4 12 12zm-5 0c0-1.9 0-2.1 0-2.9-0.2-2.5-1.6-3.9-4.1-4.1-0.8 0-1 0-2.9 0-1.9 0-2.1 0-2.9 0-2.5 0.2-3.9 1.6-4.1 4.1 0 0.8 0 1 0 2.9 0 1.9 0 2.1 0 2.9 0.2 2.5 1.6 3.9 4.1 4.1 0.8 0 1 0 2.9 0 1.9 0 2.1 0 2.9 0 2.5-0.2 3.9-1.6 4.1-4.1 0-0.8 0-1 0-2.9zm-1.3-2.8c0 0.7 0 0.9 0 2.8 0 1.9 0 2.1 0 2.8-0.1 1.9-1 2.8-2.9 2.9-0.7 0-0.9 0-2.8 0-1.9 0-2.1 0-2.8 0-1.9-0.1-2.8-1-2.9-2.9 0-0.7 0-0.9 0-2.8 0-1.9 0-2.1 0-2.8 0.1-1.9 1-2.8 2.9-2.9 0.7 0 0.9 0 2.8 0 1.9 0 2.1 0 2.8 0 1.9 0.1 2.8 1 2.9 2.9zm-2.1 2.8c0-2-1.6-3.6-3.6-3.6-2 0-3.6 1.6-3.6 3.6 0 2 1.6 3.6 3.6 3.6 2 0 3.6-1.6 3.6-3.6zm-1.3 0c0 1.3-1 2.3-2.3 2.3-1.3 0-2.3-1-2.3-2.3 0-1.3 1-2.3 2.3-2.3 1.3 0 2.3 1 2.3 2.3zm2.3-3.7c0-0.5-0.4-0.9-0.9-0.9-0.4 0-0.8 0.4-0.8 0.9 0 0.4 0.4 0.8 0.8 0.8 0.5 0 0.9-0.4 0.9-0.8z"/></svg>