<svg version="1.2" xmlns="http://www.w3.org/2000/svg" viewBox="0 0 24 24" width="24" height="24"><style>.a{fill:#fff}</style><path fill-rule="evenodd" class="a" d="m24 12c0 6.6-5.4 12-12 12-6.6 0-12-5.4-12-12 0-6.6 5.4-12 12-12 6.6 0 12 5.4 12 12zm-4.5-3.8q-0.8 0.3-1.6 0.4c0.5-0.3 1-0.9 1.2-1.6q-0.8 0.5-1.8 0.7c-0.5-0.5-1.3-0.9-2.1-0.9-1.9 0-3.2 1.7-2.8 3.5-2.4-0.1-4.5-1.2-5.9-3-0.8 1.3-0.4 3 0.9 3.9q-0.7-0.1-1.3-0.4c-0.1 1.3 0.9 2.6 2.3 2.9q-0.6 0.1-1.3 0c0.3 1.2 1.4 2 2.7 2-1.3 1-2.8 1.4-4.3 1.2 1.3 0.8 2.8 1.3 4.4 1.3 5.3 0 8.3-4.5 8.2-8.6q0.8-0.6 1.4-1.4z"/></svg>